<?xml version="1.0" encoding="utf-8"?>
<!-- Generator: Adobe Illustrator 25.2.0, SVG Export Plug-In . SVG Version: 6.00 Build 0)  -->
<svg version="1.1" id="Слой_1" xmlns="http://www.w3.org/2000/svg" xmlns:xlink="http://www.w3.org/1999/xlink" x="0px" y="0px"
	 viewBox="0 0 20 20" style="enable-background:new 0 0 20 20;" xml:space="preserve">
<path d="M19,14.8l-0.5-4.1c-0.2-1.9-1.5-3.5-3.2-4.4c-0.1-3.9-2.2-6.3-5.5-6.3c-3.4,0-5.5,2.5-5.5,6.4c-1.5,0.9-2.7,2.4-2.9,4.2
	L1,14.8c-0.2,1.4,0.2,2.6,1.1,3.6s2.1,1.5,3.5,1.5h8.8c1.4,0,2.6-0.5,3.5-1.5S19.1,16.2,19,14.8z M9.9,1.7c3,0,3.7,2.4,3.9,4.2
	c-0.2,0-0.5-0.1-0.7-0.1H7c-0.3,0-0.7,0-1,0.1C6.1,4,6.9,1.7,9.9,1.7z M16.7,17.4c-0.6,0.6-1.4,1-2.3,1H5.6c-0.9,0-1.7-0.3-2.3-1
	c-0.6-0.6-0.8-1.5-0.7-2.4l0.5-4.1C3.3,9,5.1,7.4,7,7.4h6c1.9,0,3.7,1.6,3.9,3.5l0.5,4.1C17.5,15.9,17.2,16.7,16.7,17.4z"/>
</svg>
