<?xml version="1.0" encoding="utf-8"?>
<!-- Generator: Adobe Illustrator 25.2.0, SVG Export Plug-In . SVG Version: 6.00 Build 0)  -->
<svg version="1.1" id="Слой_1" xmlns="http://www.w3.org/2000/svg" xmlns:xlink="http://www.w3.org/1999/xlink" x="0px" y="0px"
	 viewBox="0 0 21 20" style="enable-background:new 0 0 21 20;" xml:space="preserve">
<g>
	<path d="M10.5,19.9L10,19.5c-0.2-0.1-3.9-3.2-6.9-6.7C1,10.2-1.7,5,2,1.6C3.2,0.5,4.7,0,6.2,0.3C8,0.5,9.5,1.6,10.5,2.8
		c1-1.1,2.5-2.2,4.3-2.5c1.6-0.2,3,0.2,4.2,1.3c3.7,3.4,1,8.6-1.1,11.2c-2.9,3.5-6.7,6.6-6.9,6.7L10.5,19.9z M5.4,1.8
		c-0.9,0-1.6,0.3-2.3,1c-3.5,3.2,1.1,8.8,1.3,9c2.2,2.6,5,5.1,6.1,6.1c1.1-1,3.9-3.4,6.1-6.1c0.2-0.2,4.8-5.8,1.3-9
		C17.1,2,16.1,1.7,15,1.8c-1.7,0.3-3.2,1.6-3.8,2.7l-0.7,1.2L9.8,4.5C9.2,3.4,7.6,2.1,6,1.8C5.8,1.8,5.6,1.8,5.4,1.8z"/>
</g>
</svg>
