<?xml version="1.0" encoding="utf-8"?>
<!-- Generator: Adobe Illustrator 25.2.0, SVG Export Plug-In . SVG Version: 6.00 Build 0)  -->
<svg version="1.1" id="Слой_1" xmlns="http://www.w3.org/2000/svg" xmlns:xlink="http://www.w3.org/1999/xlink" x="0px" y="0px"
	 viewBox="0 0 200 70" style="enable-background:new 0 0 200 70;" xml:space="preserve">
<style type="text/css">
	.st0{fill-rule:evenodd;clip-rule:evenodd;}
</style>
<path d="M59.8,62.4v6.4c0,0,0,0.1,0.1,0.1c0.1,0,0.2,0,0.3,0c0.1,0,0.2,0,0.3,0c0.1,0,0.1,0,0.1-0.1v-4.2c0-0.3,0-0.7-0.1-1h0
	c0.1,0.2,0.1,0.3,0.2,0.5c0.1,0.2,0.1,0.3,0.2,0.5l2.1,4.3c0,0,0.1,0.1,0.1,0.1c0.1,0,0.1,0,0.2,0c0.1,0,0.1,0,0.2,0
	c0.1,0,0.1,0,0.1-0.1l2.1-4.3c0.1-0.1,0.1-0.3,0.2-0.5c0.1-0.2,0.1-0.4,0.2-0.5h0c0,0.3,0,0.7,0,1v4.2c0,0,0,0.1,0.1,0.1
	c0.1,0,0.2,0,0.3,0c0.1,0,0.2,0,0.3,0c0.1,0,0.1,0,0.1-0.1v-6.4c0,0-0.1-0.1-0.2-0.1c-0.1,0-0.2,0-0.3,0c-0.1,0-0.2,0-0.3,0
	c-0.1,0-0.2,0-0.2,0.1l-2.2,4.5c-0.1,0.1-0.1,0.3-0.2,0.5c-0.1,0.2-0.1,0.3-0.2,0.5h0c-0.1-0.2-0.1-0.3-0.2-0.5
	c-0.1-0.1-0.1-0.3-0.2-0.4l-2.2-4.5c-0.1-0.1-0.5-0.1-0.6-0.1c-0.1,0-0.2,0-0.3,0C59.9,62.4,59.8,62.4,59.8,62.4L59.8,62.4z
	 M74.9,68.2L74.9,68.2c0.1-0.3-0.1-0.5-0.3-0.7l-0.1,0.1c-0.7,0.4-1.2,0.6-2,0.6c-1.7,0-2.4-0.9-2.4-2.5h4.9v-0.5c0-1.8-0.9-3-2.7-3
	c-2,0-3,1.6-3,3.4c0,0.9,0.2,2,1,2.6c0.6,0.5,1.5,0.7,2.3,0.7C73.1,69,74.3,68.7,74.9,68.2L74.9,68.2z M74,65.1h-3.9
	C70.2,64,71,63,72.1,63C73.4,63,74,63.8,74,65.1L74,65.1z M77.4,64.1L77.4,64.1c0.1-2,0.6-3.1,2.6-3.5c0.7-0.2,1.2-0.3,1.6-0.5
	c0.4-0.1,0.7-0.3,0.9-0.6l0.1-0.2c0-0.1-0.1-0.2-0.2-0.3c-0.1-0.1-0.2-0.1-0.3-0.2L81.9,59c-0.1,0.2-0.4,0.3-0.9,0.5
	c-0.4,0.1-0.9,0.3-1.5,0.4c-1.6,0.5-2.3,1.3-2.7,2.9c-0.1,0.6-0.2,1.3-0.2,2.2c0,2.2,0.9,4,3.3,4c1.9,0,3.2-1.4,3.2-3.3
	c0-1.8-1-3.3-2.9-3.3C79,62.4,77.8,63,77.4,64.1L77.4,64.1z M79.9,68.3c-0.4,0-0.8-0.1-1.1-0.3c-0.8-0.4-1.2-1.4-1.2-2.3
	c0-1.4,1-2.6,2.5-2.6c1.5,0,2.2,1.2,2.2,2.6C82.2,67.1,81.3,68.3,79.9,68.3L79.9,68.3z M90.4,68.2L90.4,68.2
	c0.1-0.3-0.1-0.5-0.3-0.7l-0.1,0.1c-0.7,0.4-1.2,0.6-2,0.6c-1.7,0-2.4-0.9-2.4-2.5h4.9v-0.5c0-1.8-0.9-3-2.7-3c-2,0-3,1.6-3,3.4
	c0,0.9,0.2,2,1,2.6c0.6,0.5,1.5,0.7,2.3,0.7C88.6,69,89.8,68.7,90.4,68.2L90.4,68.2z M89.5,65.1h-3.9c0.2-1.1,0.9-2.1,2.1-2.1
	C88.9,63,89.5,63.8,89.5,65.1L89.5,65.1z M96.9,63.1v5.7c0,0,0,0.1,0.1,0.1c0.1,0,0.2,0,0.3,0c0.1,0,0.2,0,0.3,0
	c0.1,0,0.1,0,0.1-0.1v-6.4h-4.3v0.8c0,0.8,0,1.5-0.1,2.1c-0.1,1.2-0.3,2.6-1.7,2.9c-0.1,0.1-0.1,0.2-0.1,0.3c0,0.1,0,0.2,0.1,0.2
	c0,0.1,0.1,0.1,0.2,0.2c1.8-0.5,2.2-1.9,2.4-3.5c0.1-0.7,0.1-1.4,0.1-2.2v-0.1H96.9L96.9,63.1z M100.4,62.4v6.4h2.5
	c1.3,0,2.5-0.5,2.5-2c0-1.6-1.2-2-2.5-2h-1.7v-2.4c0,0,0-0.1-0.1-0.1c-0.1,0-0.2,0-0.3,0c-0.1,0-0.2,0-0.3,0
	C100.4,62.4,100.4,62.4,100.4,62.4L100.4,62.4z M102.9,68.1h-1.7v-2.5h1.7c0.1,0,0.3,0,0.5,0c0.2,0,0.4,0.1,0.5,0.2
	c0.4,0.2,0.6,0.6,0.6,1.1C104.6,68,103.8,68.1,102.9,68.1L102.9,68.1z M107.3,62.4v6.4c0,0,0,0.1,0.1,0.1c0.1,0,0.2,0,0.3,0
	c0.1,0,0.2,0,0.3,0c0.1,0,0.1,0,0.1-0.1v-3h3.9v3c0,0,0,0.1,0.1,0.1c0.1,0,0.2,0,0.3,0c0.1,0,0.2,0,0.3,0c0.1,0,0.1,0,0.1-0.1v-6.4
	c0,0,0-0.1-0.1-0.1c-0.1,0-0.2,0-0.3,0c-0.1,0-0.2,0-0.3,0c-0.1,0-0.1,0-0.1,0.1v2.7h-3.9v-2.7c0,0,0-0.1-0.1-0.1
	c-0.1,0-0.2,0-0.3,0c-0.1,0-0.2,0-0.3,0C107.4,62.4,107.3,62.4,107.3,62.4L107.3,62.4z M119.7,67.8v1c0,0,0,0.1,0.1,0.1
	c0.1,0,0.2,0,0.3,0c0.1,0,0.2,0,0.3,0c0.1,0,0.1,0,0.1-0.1v-4.1c0-1.7-0.9-2.4-2.5-2.4c-0.2,0-0.4,0-0.6,0c-0.7,0.1-1.4,0.3-1.9,0.7
	l0,0c0,0.3,0.2,0.5,0.4,0.6l0.1-0.1c0.6-0.4,1.3-0.6,2-0.6c0.2,0,0.5,0,0.7,0.1c0.8,0.2,1.1,0.8,1.1,1.6v0.2H118
	c-1.5,0-2.9,0.4-2.9,2.1c0,1.4,1,2,2.3,2C118.3,69,119.2,68.6,119.7,67.8L119.7,67.8L119.7,67.8z M119.7,65.6v0.7
	c0,1.1-1.2,1.9-2.2,1.9c-1,0-1.6-0.4-1.6-1.2c0-0.3,0.1-0.5,0.2-0.7c0.4-0.6,1.3-0.7,1.9-0.7H119.7L119.7,65.6z M124.6,66.2l-2,2.6
	c0,0,0.1,0.1,0.1,0.1c0.1,0,0.2,0,0.3,0c0.1,0,0.2,0,0.3,0c0.1,0,0.2,0,0.2-0.1l1.9-2.5h1.4v2.5c0,0,0,0.1,0.1,0.1
	c0.1,0,0.2,0,0.3,0c0.1,0,0.2,0,0.3,0c0.1,0,0.1,0,0.1-0.1v-6.4h-2.7c-1.3,0-2.2,0.7-2.2,2C122.9,65.4,123.6,66.1,124.6,66.2
	L124.6,66.2z M126.9,65.6h-1.6c-0.5,0-1.2-0.1-1.5-0.6c-0.1-0.2-0.1-0.4-0.1-0.6c0-1,0.7-1.2,1.6-1.2h1.6V65.6L126.9,65.6z
	 M137,62.4v6.4c0,0,0,0.1,0.1,0.1c0.1,0,0.2,0,0.3,0c0.1,0,0.2,0,0.3,0c0.1,0,0.1,0,0.1-0.1v-3h0.9l2.7,3c0,0,0.1,0.1,0.2,0.1
	c0.1,0,0.2,0,0.3,0c0.1,0,0.3,0,0.4,0c0.1,0,0.2,0,0.2-0.1l-3-3.4l2.9-3c-0.1-0.1-0.5-0.1-0.6-0.1c-0.1,0-0.2,0-0.3,0
	c-0.1,0-0.2,0-0.2,0.1l-2.6,2.7h-1v-2.7c0,0,0-0.1-0.1-0.1c-0.1,0-0.2,0-0.3,0c-0.1,0-0.2,0-0.3,0C137,62.4,137,62.4,137,62.4
	L137,62.4z M146.6,69c2.1,0,3.2-1.4,3.2-3.3c0-2-1.2-3.3-3.2-3.3c-2,0-3.2,1.4-3.2,3.3C143.4,67.6,144.7,69,146.6,69L146.6,69z
	 M146.6,68.3c-1.5,0-2.3-1.2-2.3-2.6c0-1.5,0.8-2.6,2.3-2.6c1.5,0,2.3,1.2,2.3,2.6C148.9,67.1,148.1,68.3,146.6,68.3L146.6,68.3z
	 M151.9,62.4v6.4c0,0,0,0.1,0.1,0.1c0.1,0,0.2,0,0.3,0c0.1,0,0.2,0,0.3,0c0.1,0,0.1,0,0.1-0.1v-4.2c0-0.3,0-0.7-0.1-1h0
	c0.1,0.2,0.1,0.3,0.2,0.5c0.1,0.2,0.1,0.3,0.2,0.5l2.1,4.3c0,0,0.1,0.1,0.1,0.1c0.1,0,0.1,0,0.2,0c0.1,0,0.1,0,0.2,0
	c0.1,0,0.1,0,0.1-0.1l2.1-4.3c0.1-0.1,0.1-0.3,0.2-0.5c0.1-0.2,0.1-0.4,0.2-0.5h0c0,0.3,0,0.7,0,1v4.2c0,0,0,0.1,0.1,0.1
	c0.1,0,0.2,0,0.3,0c0.1,0,0.2,0,0.3,0c0.1,0,0.1,0,0.1-0.1v-6.4c0,0-0.1-0.1-0.2-0.1c-0.1,0-0.2,0-0.3,0c-0.1,0-0.2,0-0.3,0
	c-0.1,0-0.2,0-0.2,0.1l-2.2,4.5c-0.1,0.1-0.1,0.3-0.2,0.5c-0.1,0.2-0.1,0.3-0.2,0.5h0c-0.1-0.2-0.1-0.3-0.2-0.5
	c-0.1-0.1-0.1-0.3-0.2-0.4l-2.2-4.5c-0.1-0.1-0.5-0.1-0.6-0.1c-0.1,0-0.2,0-0.3,0C152,62.4,151.9,62.4,151.9,62.4L151.9,62.4z
	 M161.8,62.4v6.4c0,0,0,0.1,0.1,0.1c0.1,0,0.2,0,0.3,0c0.1,0,0.2,0,0.3,0c0.1,0,0.1,0,0.1-0.1v-5.7h3.8v5.7c0,0,0,0.1,0.1,0.1
	c0.1,0,0.2,0,0.3,0c0.1,0,0.2,0,0.3,0c0.1,0,0.1,0,0.1-0.1v-6.4H161.8L161.8,62.4z M174.1,67.8v1c0,0,0,0.1,0.1,0.1
	c0.1,0,0.2,0,0.3,0c0.1,0,0.2,0,0.3,0c0.1,0,0.1,0,0.1-0.1v-4.1c0-1.7-0.9-2.4-2.5-2.4c-0.2,0-0.4,0-0.6,0c-0.7,0.1-1.4,0.3-1.9,0.7
	l0,0c0,0.3,0.2,0.5,0.4,0.6l0.1-0.1c0.6-0.4,1.3-0.6,2-0.6c0.2,0,0.5,0,0.7,0.1c0.8,0.2,1.1,0.8,1.1,1.6v0.2h-1.7
	c-1.5,0-2.9,0.4-2.9,2.1c0,1.4,1,2,2.3,2C172.6,69,173.6,68.6,174.1,67.8L174.1,67.8L174.1,67.8z M174.1,65.6v0.7
	c0,1.1-1.2,1.9-2.2,1.9c-1,0-1.6-0.4-1.6-1.2c0-0.3,0.1-0.5,0.2-0.7c0.4-0.6,1.3-0.7,1.9-0.7H174.1L174.1,65.6z M177.5,62.4v6.4
	c0,0,0,0.1,0.1,0.1c0.1,0,0.2,0,0.3,0c0.1,0,0.2,0,0.3,0c0.1,0,0.1,0,0.1-0.1v-3h3.9v3c0,0,0,0.1,0.1,0.1c0.1,0,0.2,0,0.3,0
	c0.1,0,0.2,0,0.3,0c0.1,0,0.1,0,0.1-0.1v-6.4c0,0,0-0.1-0.1-0.1c-0.1,0-0.2,0-0.3,0c-0.1,0-0.2,0-0.3,0c-0.1,0-0.1,0-0.1,0.1v2.7
	h-3.9v-2.7c0,0,0-0.1-0.1-0.1c-0.1,0-0.2,0-0.3,0c-0.1,0-0.2,0-0.3,0C177.6,62.4,177.5,62.4,177.5,62.4L177.5,62.4z M185.8,62.4v6.4
	c0,0,0,0.1,0.1,0.1c0.1,0,0.1,0,0.2,0c0.1,0,0.2,0,0.3,0c0.1,0,0.1,0,0.2-0.1l3.5-4.5c0.1-0.1,0.2-0.2,0.3-0.4
	c0.1-0.2,0.2-0.3,0.3-0.4h0c0,0.4-0.1,0.8-0.1,1.3v4c0,0,0,0.1,0.1,0.1c0.1,0,0.2,0,0.3,0c0.1,0,0.2,0,0.3,0c0.1,0,0.1,0,0.1-0.1
	v-6.4c0,0,0-0.1-0.1-0.1c-0.1,0-0.1,0-0.2,0c-0.1,0-0.2,0-0.3,0c-0.1,0-0.1,0-0.2,0.1L187,67c-0.1,0.1-0.1,0.2-0.2,0.3
	c-0.1,0.1-0.1,0.3-0.2,0.4h0c0-0.2,0-0.4,0-0.6c0-0.1,0-0.2,0-0.3c0-0.1,0-0.2,0-0.3v-4c0,0,0-0.1-0.1-0.1c-0.1,0-0.2,0-0.3,0
	c-0.1,0-0.2,0-0.3,0C185.8,62.4,185.8,62.4,185.8,62.4L185.8,62.4z M195.4,66.2l-2,2.6c0,0,0.1,0.1,0.1,0.1c0.1,0,0.2,0,0.3,0
	c0.1,0,0.2,0,0.3,0c0.1,0,0.2,0,0.2-0.1l1.9-2.5h1.4v2.5c0,0,0,0.1,0.1,0.1c0.1,0,0.2,0,0.3,0c0.1,0,0.2,0,0.3,0
	c0.1,0,0.1,0,0.1-0.1v-6.4h-2.7c-1.3,0-2.2,0.7-2.2,2C193.7,65.4,194.5,66.1,195.4,66.2L195.4,66.2z M197.8,65.6h-1.6
	c-0.5,0-1.2-0.1-1.5-0.6c-0.1-0.2-0.1-0.4-0.1-0.6c0-1,0.7-1.2,1.6-1.2h1.6V65.6L197.8,65.6z"/>
<path d="M41.8,7.9l2.4,0c-0.1-2.2-1.5-4.4-3.9-4.4c-1,0-1.9,0.4-2.6,1.1c-0.6,0.6-1,1.4-1,2.2c0,0.4,0,0.8,0,1.2
	c0.6,7.2,1.5,14.5,2.2,21.7c0,0.5,0.1,0.9,0,1.3c-0.1,1.6-0.8,3.1-1.9,4.2l0,0c-1.2,1.2-2.8,1.9-4.6,1.9c-0.7,0-1.5-0.1-2.2-0.4
	l-19.5-6c-1-0.3-2.6-0.9-3.6-0.9c-1,0-1.9,0.4-2.6,1.1l0,0c-0.7,0.7-1.1,1.6-1.1,2.6c0,1.1,0.5,1.8,0.9,2.7l5.8,12.6l27.4,0
	c2.1,0,4-0.8,5.4-2.2c1.4-1.3,2.2-3.2,2.2-5.2c0-0.5-0.1-1-0.1-1.4L40.2,9.6C40.1,8.7,40.9,7.9,41.8,7.9L41.8,7.9z M18.2,68.1
	c-0.5,0.6-1.4,0.8-2,0.3c-0.6-0.5-0.8-1.4-0.3-2c0.7-0.9,1.5-1.6,2.5-2.1c1-0.5,2-0.7,3.1-0.7h2.3V51.8l-21.6,0
	c-0.5,0-1-0.1-1.3-0.5c-0.4-0.4-0.4-1-0.4-1.5c0-0.3,0-0.5,0-0.8c0-1.5,0.3-3,1-4.4c0.5-1.1,1.3-2.2,2.2-3.1l-2.2-4.8
	c-0.3-0.5-0.5-1-0.6-1.5c-0.1-0.5-0.2-1.1-0.2-1.7c0-1.8,0.7-3.4,1.9-4.6l0,0c0.3-0.3,0.6-0.6,1-0.8c0.1-1.6,0.9-3.1,2-4.1
	c1.2-1.1,2.8-1.8,4.5-1.8c0.5,0,1.1,0.1,1.6,0.2c6.3,1.6,13.2,4,19.4,5.9c0.5,0.1,0.7,0.2,1.3,0.2c0.7,0,1.3-0.2,1.9-0.5
	c0.6-0.3,1-0.8,1.3-1.4l0.1-0.1L33.8,7.9c0-0.4-0.1-0.8,0-1.3c0.1-1.6,0.8-3,1.9-4c1.2-1.2,2.9-1.9,4.6-1.9c1.4,0,2.8,0.5,3.9,1.3
	c1.4,1,2.2,2.3,2.6,4l1.3,6.1c0.1,0.4,0,0.7-0.2,1.1c-0.4,0.7-1.3,0.9-2,0.5l-2.3-1.4C44,14.5,48,39.6,48,39.6
	c0.1,0.6,0.2,1.2,0.2,1.9c0,2.9-1.2,5.5-3.1,7.3c-1.9,1.9-4.5,3-7.4,3l-11,0v11.7H29c1.1,0,2.2,0.3,3.1,0.7c1,0.5,1.8,1.2,2.5,2.1
	c0.5,0.6,0.4,1.6-0.3,2c-0.6,0.5-1.6,0.4-2-0.3c-0.4-0.5-0.9-0.9-1.5-1.2c-0.6-0.3-1.2-0.4-1.9-0.4h-2.3v0.8c0,0.8-0.7,1.5-1.5,1.5
	s-1.5-0.7-1.5-1.5v-0.8h-2.3c-0.7,0-1.3,0.2-1.9,0.4C19.1,67.2,18.5,67.6,18.2,68.1L18.2,68.1z M36.1,30.3c-1.1,0.7-2.3,1.1-3.6,1.1
	c-0.3,0-0.7,0-1.1-0.1c-0.4-0.1-0.7-0.2-1-0.3l-19.1-5.8c-0.4-0.1-0.7-0.2-1.1-0.2c-1,0-1.9,0.4-2.5,1C7.3,26.4,7,26.7,6.9,27l0.3,0
	c1,0,1.5,0.2,2.3,0.4l21.7,6.7c0.2,0.1,0.4,0.1,0.7,0.2c0.2,0,0.4,0.1,0.6,0.1c1,0,1.9-0.4,2.6-1.1l0,0c0.5-0.5,0.8-1,1-1.7
	C36.1,31.2,36.1,30.7,36.1,30.3L36.1,30.3z M7.1,48.9L5,44.4c-0.4,0.5-0.7,0.9-0.9,1.5c-0.4,0.9-0.7,2-0.7,3.1L7.1,48.9L7.1,48.9z"
	/>
<path class="st0" d="M75.8,49.9V52h-8.1c-1.6,0-2.9-0.3-3.9-0.8c-1-0.5-1.7-1-2.1-1.5c-0.9-0.9-1.5-1.9-1.8-3.2
	c-0.3-1.2-0.5-2.6-0.5-4.1c0-1.3,0-2.6,0.3-3.9c0.3-1.4,0.8-2.7,1.8-3.7c0.6-0.6,1.5-1.4,2.7-1.9c0.9-0.4,2.1-0.6,3.4-0.6h7.8v3
	h-7.2c-0.6,0-1.5,0-2.3,0.3c-0.8,0.2-1.6,0.7-2.2,1.5c-0.5,0.7-0.8,1.5-1,2.4c-0.2,1-0.2,2-0.2,3c0,0.7,0,1.6,0.1,2.4
	c0.1,0.8,0.4,1.7,0.9,2.4c0.6,0.9,1.5,1.3,2.3,1.6c0.8,0.2,1.6,0.3,2,0.3h7.8V49.9L75.8,49.9z M87.6,32.4c1.3-0.3,2.5-0.3,3.5-0.3
	c1,0,2.3,0,3.5,0.3c1.3,0.3,2.6,0.8,3.7,1.9c1.2,1.2,1.8,2.6,2.1,4c0.3,1.4,0.3,2.7,0.3,3.8c0,1.1,0,2.4-0.3,3.8
	c-0.3,1.4-0.9,2.9-2.1,4l0,0c-1.1,1.1-2.4,1.6-3.7,1.9c-1.3,0.3-2.5,0.3-3.5,0.3c-1,0-2.3,0-3.5-0.3C86.3,51.6,85,51.1,84,50
	c-1.2-1.2-1.8-2.6-2.1-4c-0.3-1.4-0.3-2.7-0.3-3.8c0-1.1,0-2.4,0.3-3.8c0.3-1.4,0.9-2.9,2.1-4l0,0C85,33.2,86.3,32.7,87.6,32.4
	L87.6,32.4z M85,39c-0.2,1-0.2,2.1-0.2,3.1c0,1,0,2.1,0.2,3.1c0.2,0.9,0.5,1.8,1.1,2.5c1.3,1.4,3.5,1.4,5,1.4c0.8,0,1.8,0,2.7-0.2
	c0.9-0.2,1.7-0.5,2.3-1.2c0.6-0.7,1-1.6,1.1-2.5c0.2-1,0.2-2.1,0.2-3.1c0-1,0-2.1-0.2-3.1c-0.2-0.9-0.5-1.8-1.1-2.5
	c-1.3-1.4-3.5-1.4-5-1.4c-0.8,0-1.8,0-2.7,0.2c-0.9,0.2-1.7,0.5-2.3,1.2C85.5,37.2,85.2,38.1,85,39L85,39z M110,52h-2.3V34.6
	c0-0.7,0.3-1.4,0.7-1.8c0.5-0.5,1.1-0.7,1.8-0.7c0.8,0,1.3,0.3,1.8,0.7c0.4,0.4,0.7,0.9,1,1.6l5.7,13.8l5.7-13.8
	c0.3-0.6,0.6-1.2,1-1.6c0.5-0.5,1-0.7,1.8-0.7c0.7,0,1.4,0.3,1.8,0.7h0c0.5,0.5,0.7,1.1,0.7,1.8V52h-3.1V37l-5.3,12.7
	c-0.3,0.6-0.5,1.2-0.9,1.6c-0.4,0.6-1,0.9-1.8,0.9c-0.8,0-1.3-0.3-1.8-0.9c-0.4-0.4-0.6-1-0.9-1.6L110.9,37v15H110L110,52z
	 M140.6,43.5V52h-3.1V35c0-0.4,0.1-0.7,0.2-1c0.1-0.4,0.3-0.7,0.6-0.9c0.4-0.4,0.8-0.6,1.2-0.7c0.4-0.1,0.7-0.1,1.1-0.1h11.2v3
	h-11.1v5.2h8.1v3H140.6L140.6,43.5z M157.9,45.5V32.3h3.1v12.8c0,0.5,0,1.1,0.1,1.7c0.1,0.5,0.3,1,0.6,1.4l0,0
	c0.4,0.5,1,0.8,1.6,0.9c0.7,0.2,1.5,0.2,2.3,0.2c0.7,0,1.6,0,2.3-0.2c0.6-0.2,1.2-0.4,1.6-0.9l0,0c0.3-0.4,0.5-0.9,0.6-1.4
	c0.1-0.6,0.1-1.2,0.1-1.7V32.3h3.1v13.3c0,0.7-0.1,1.5-0.3,2.2v0c-0.2,0.8-0.6,1.6-1.2,2.3l0,0c-0.9,1-2.1,1.5-3.3,1.8
	c-1.1,0.3-2.2,0.3-3,0.3c-0.8,0-1.8,0-3-0.3c-1.2-0.3-2.4-0.8-3.3-1.8l0,0c-0.6-0.7-1-1.5-1.2-2.3C157.9,47,157.9,46.2,157.9,45.5
	L157.9,45.5z M183.2,52h-2.3V35.9c0-0.4,0-0.9,0.1-1.3c0.1-0.5,0.4-1,0.9-1.4l0,0c0.4-0.4,0.9-0.6,1.3-0.7c0.4-0.1,0.8-0.1,1.2-0.1
	h8.2c0.6,0,1.3,0.1,2.1,0.3c0.8,0.3,1.5,0.8,2.1,1.6c0.4,0.6,0.7,1.4,0.8,2.2c0.1,0.7,0.2,1.5,0.2,2.2c0,0.6,0,1.3-0.1,2
	c-0.1,0.8-0.4,1.5-0.8,2.2c-0.4,0.7-1,1.2-1.7,1.5c-0.8,0.4-1.6,0.5-2.3,0.5h-1.7l8,7.3h-4.7c-2.7-2.3-5-4.7-7.7-7.1
	c-0.8-0.7-1.1-2-0.3-2.8c0.3-0.3,0.6-0.4,1.1-0.4h5.6c0.2,0,0.5-0.1,0.6-0.2c0.2-0.1,0.4-0.3,0.5-0.4c0.1-0.2,0.2-0.4,0.2-0.8
	c0.1-0.5,0.1-1.1,0.1-2v-0.1h0c0-0.7,0-2.2-0.6-2.7c-0.2-0.2-0.5-0.3-0.8-0.3h0c-0.3-0.1-0.6-0.1-0.8-0.1h-7.9c-0.1,0-0.2,0-0.3,0
	c0,0-0.1,0-0.1,0c0,0,0,0.1-0.1,0.1c0,0,0,0.1,0,0.2V52H183.2L183.2,52z"/>
</svg>
