<?xml version="1.0" encoding="utf-8"?>
<!-- Generator: Adobe Illustrator 25.2.0, SVG Export Plug-In . SVG Version: 6.00 Build 0)  -->
<svg version="1.1" id="Слой_1" xmlns="http://www.w3.org/2000/svg" xmlns:xlink="http://www.w3.org/1999/xlink" x="0px" y="0px"
	 viewBox="0 0 20 20" style="enable-background:new 0 0 20 20;" xml:space="preserve">
<path d="M18.7,15.2L18.7,15.2l-0.2-1.3c-0.4-2.7-2.9-4.9-5.6-4.9c1.1-0.9,1.9-2.2,1.9-3.8c0-2.6-2.2-4.8-4.8-4.8S5.2,2.6,5.2,5.2
	C5.2,6.8,6,8.2,7.1,9c-2.7,0-5.2,2.2-5.6,4.9l-0.2,1.3l0,0l-0.6,4.3h1.6l0.7-5.4c0.3-1.9,2.1-3.5,4.1-3.5h5.7c1.9,0,3.8,1.6,4.1,3.5
	l0.7,5.4h1.6L18.7,15.2z M10,2c1.8,0,3.2,1.4,3.2,3.2S11.8,8.4,10,8.4C8.2,8.4,6.8,7,6.8,5.2S8.2,2,10,2z"/>
</svg>
